<svg width="297" height="282" viewBox="0 0 297 282" fill="none" xmlns="http://www.w3.org/2000/svg">
<path opacity="0.05" fill-rule="evenodd" clip-rule="evenodd" d="M294.808 152.951C287.381 183.48 251.089 195.566 230.373 219.221C213.538 238.446 208.322 269.161 184.622 278.775C161.003 288.355 135.191 274.147 110.489 267.848C88.439 262.226 66.2035 257.62 48.0327 243.946C29.0123 229.633 12.7207 211.212 5.23556 188.643C-2.38474 165.667 -1.33307 140.55 6.10028 117.512C13.4181 94.8327 31.1455 78.4773 46.633 60.3441C64.9831 38.8591 77.8174 8.48479 105.217 1.463C132.837 -5.61535 159.012 14.764 185.735 24.6957C214.736 35.474 248.555 38.6301 268.58 62.1768C289.421 86.6827 302.407 121.717 294.808 152.951Z" fill="#546E7A"/>
<g clip-path="url(#clip0_7014_112797)">
<path d="M233.985 47H29.0148C25.9691 47 23.5 49.4863 23.5 52.5533V211.447C23.5 214.514 25.9691 217 29.0148 217H233.985C237.031 217 239.5 214.514 239.5 211.447V52.5533C239.5 49.4863 237.031 47 233.985 47Z" fill="#B0BEC5"/>
<path d="M29.0092 47H46.3414V217H29.0092C28.2857 217 27.5693 216.857 26.9009 216.578C26.2325 216.299 25.6252 215.89 25.1136 215.375C24.602 214.86 24.1962 214.248 23.9194 213.575C23.6425 212.902 23.5 212.181 23.5 211.452V52.5477C23.5 51.0763 24.0804 49.6653 25.1136 48.6249C26.1468 47.5845 27.548 47 29.0092 47V47Z" fill="#546E7A"/>
<path d="M37.7713 57.251H32.0652C30.5703 57.251 29.3584 58.4713 29.3584 59.9766C29.3584 61.482 30.5703 62.7023 32.0652 62.7023H37.7713C39.2662 62.7023 40.478 61.482 40.478 59.9766C40.478 58.4713 39.2662 57.251 37.7713 57.251Z" fill="white"/>
<path d="M37.7713 80.3142H32.0652C30.5703 80.3142 29.3584 81.5345 29.3584 83.0399C29.3584 84.5452 30.5703 85.7655 32.0652 85.7655H37.7713C39.2662 85.7655 40.478 84.5452 40.478 83.0399C40.478 81.5345 39.2662 80.3142 37.7713 80.3142Z" fill="white"/>
<path d="M37.7713 103.383H32.0652C30.5703 103.383 29.3584 104.604 29.3584 106.109C29.3584 107.614 30.5703 108.835 32.0652 108.835H37.7713C39.2662 108.835 40.478 107.614 40.478 106.109C40.478 104.604 39.2662 103.383 37.7713 103.383Z" fill="white"/>
<path d="M34.9237 198.266H34.9181C31.8848 198.266 29.4258 200.742 29.4258 203.797V203.802C29.4258 206.857 31.8848 209.333 34.9181 209.333H34.9237C37.957 209.333 40.416 206.857 40.416 203.802V203.797C40.416 200.742 37.957 198.266 34.9237 198.266Z" fill="white"/>
<path d="M147.763 71.1003H68.8842C67.0195 71.1003 65.5078 72.6226 65.5078 74.5003V126.498C65.5078 128.375 67.0195 129.898 68.8842 129.898H147.763C149.627 129.898 151.139 128.375 151.139 126.498V74.5003C151.139 72.6226 149.627 71.1003 147.763 71.1003Z" fill="#ECEFF1"/>
<path d="M215.87 134.533H68.8842C67.0195 134.533 65.5078 136.055 65.5078 137.933V189.93C65.5078 191.808 67.0195 193.33 68.8842 193.33H215.87C217.735 193.33 219.247 191.808 219.247 189.93V137.933C219.247 136.055 217.735 134.533 215.87 134.533Z" fill="#ECEFF1"/>
<path d="M215.871 71.1003H158.888C157.023 71.1003 155.512 72.6226 155.512 74.5003V126.498C155.512 128.375 157.023 129.898 158.888 129.898H215.871C217.735 129.898 219.247 128.375 219.247 126.498V74.5003C219.247 72.6226 217.735 71.1003 215.871 71.1003Z" fill="#ECEFF1"/>
<path d="M113.093 85.2671H81.9115C80.3202 85.2671 79.0303 86.5661 79.0303 88.1684C79.0303 89.7708 80.3202 91.0698 81.9115 91.0698H113.093C114.684 91.0698 115.974 89.7708 115.974 88.1684C115.974 86.5661 114.684 85.2671 113.093 85.2671Z" fill="#546E7A"/>
<path d="M134.736 85.2671H122.03C120.438 85.2671 119.148 86.5661 119.148 88.1684C119.148 89.7708 120.438 91.0698 122.03 91.0698H134.736C136.327 91.0698 137.617 89.7708 137.617 88.1684C137.617 86.5661 136.327 85.2671 134.736 85.2671Z" fill="#546E7A"/>
<path d="M113.093 97.5977H81.9115C80.3202 97.5977 79.0303 98.8966 79.0303 100.499C79.0303 102.101 80.3202 103.4 81.9115 103.4H113.093C114.684 103.4 115.974 102.101 115.974 100.499C115.974 98.8966 114.684 97.5977 113.093 97.5977Z" fill="#546E7A"/>
<path d="M134.736 97.5977H122.03C120.438 97.5977 119.148 98.8966 119.148 100.499C119.148 102.101 120.438 103.4 122.03 103.4H134.736C136.327 103.4 137.617 102.101 137.617 100.499C137.617 98.8966 136.327 97.5977 134.736 97.5977Z" fill="#546E7A"/>
<path d="M113.093 109.934H81.9115C80.3202 109.934 79.0303 111.233 79.0303 112.835C79.0303 114.438 80.3202 115.737 81.9115 115.737H113.093C114.684 115.737 115.974 114.438 115.974 112.835C115.974 111.233 114.684 109.934 113.093 109.934Z" fill="#546E7A"/>
<path d="M134.736 109.934H122.03C120.438 109.934 119.148 111.233 119.148 112.835C119.148 114.438 120.438 115.737 122.03 115.737H134.736C136.327 115.737 137.617 114.438 137.617 112.835C137.617 111.233 136.327 109.934 134.736 109.934Z" fill="#546E7A"/>
<path d="M187.38 118.797C197.415 118.797 205.55 110.604 205.55 100.499C205.55 90.3933 197.415 82.2012 187.38 82.2012C177.344 82.2012 169.209 90.3933 169.209 100.499C169.209 110.604 177.344 118.797 187.38 118.797Z" fill="#546E7A"/>
<path d="M73.0489 182.79C72.8583 182.562 72.7645 182.268 72.7876 181.971C72.8108 181.674 72.9491 181.399 73.1727 181.204C78.1633 176.823 82.6161 171.858 86.4363 166.414C91.3771 159.342 94.0895 153.023 96.0703 148.411C98.4338 142.92 100.009 139.293 103.386 139.004C107.544 138.653 110.189 143.617 113.262 149.368C116.846 156.089 120.915 163.711 128.028 164.884C130.729 165.326 132.085 164.578 134.336 163.337C137.662 161.384 141.33 160.097 145.141 159.546C152.591 158.344 157.583 159.585 161.989 160.679C166.491 161.812 170.081 162.691 175.095 160.679C178.106 159.472 179.445 158.101 181.139 156.367C183.402 153.916 186.067 151.874 189.017 150.332C195.044 147.164 201.729 145.479 208.527 145.413C208.826 145.413 209.112 145.532 209.323 145.745C209.534 145.957 209.653 146.246 209.653 146.546C209.653 146.847 209.534 147.135 209.323 147.348C209.112 147.56 208.826 147.68 208.527 147.68C202.087 147.74 195.753 149.335 190.041 152.332C187.301 153.772 184.827 155.676 182.726 157.959C180.998 159.727 179.349 161.399 175.911 162.787C170.227 165.054 165.956 164.005 161.432 162.883C157.234 161.841 152.479 160.656 145.484 161.784C141.928 162.3 138.503 163.502 135.4 165.326C133.098 166.595 131.112 167.689 127.645 167.116C119.441 165.768 114.905 157.268 111.259 150.439C108.681 145.606 106.245 141.044 103.555 141.265C101.473 141.435 100.128 144.569 98.0962 149.312C96.0647 154.055 93.3073 160.452 88.2314 167.717C84.3092 173.314 79.7332 178.417 74.602 182.915C74.3771 183.1 74.09 183.19 73.8006 183.167C73.5111 183.144 73.2418 183.009 73.0489 182.79Z" fill="#546E7A"/>
<path d="M203.114 109.651C204.71 106.87 205.551 103.714 205.551 100.502C205.551 97.2896 204.71 94.1341 203.114 91.353L187.357 100.499L203.114 109.651Z" fill="#263238"/>
</g>
<defs>
<clipPath id="clip0_7014_112797">
<rect width="216" height="170" fill="white" transform="translate(23.5 47)"/>
</clipPath>
</defs>
</svg>
