<svg width="529" height="529" viewBox="0 0 529 529" fill="none" xmlns="http://www.w3.org/2000/svg">
<path d="M263.442 326.217C221.387 326.217 187.266 335.122 187.266 345.966C187.266 356.899 221.387 365.803 263.442 365.803C300.913 365.803 332.124 358.75 338.472 349.493C339.265 348.347 339.618 347.2 339.618 346.054C339.618 335.122 305.498 326.217 263.442 326.217ZM263.442 348.787C239.196 348.787 219.623 345.878 219.623 342.263C219.623 342.263 219.623 342.175 219.623 341.999C219.623 341.91 219.623 341.91 219.711 341.822C219.711 341.822 219.711 341.734 219.8 341.734C221.475 338.384 240.431 335.739 263.442 335.739C285.66 335.739 303.999 338.207 306.82 341.381C307.085 341.646 307.173 341.91 307.173 342.175V342.263C307.261 345.878 287.6 348.787 263.442 348.787Z" fill="#90A4AE"/>
<path d="M172.101 332.477H98.7466C96.8951 332.477 95.0436 333.094 93.5448 334.24L65.3315 356.37C64.009 357.428 64.7143 359.544 66.3895 359.544H143.888C145.828 359.544 147.767 358.75 149.178 357.428L172.895 334.504C173.688 333.799 173.159 332.477 172.101 332.477Z" fill="#90A4AE"/>
<path d="M463.14 332.477H389.697C387.845 332.477 385.994 333.094 384.495 334.24L356.282 356.37C354.959 357.428 355.664 359.544 357.34 359.544H434.838C436.778 359.544 438.717 358.75 440.128 357.428L463.845 334.504C464.727 333.799 464.198 332.477 463.14 332.477Z" fill="#90A4AE"/>
<path d="M263.442 322.602C221.387 322.602 187.266 331.507 187.266 342.351C187.266 353.284 221.387 362.189 263.442 362.189C300.913 362.189 332.124 355.135 338.472 345.878C339.265 344.732 339.618 343.585 339.618 342.439C339.618 331.507 305.498 322.602 263.442 322.602ZM263.442 345.172C239.196 345.172 219.623 342.263 219.623 338.648C219.623 338.648 219.623 338.56 219.623 338.384C219.623 338.295 219.623 338.295 219.711 338.207C219.711 338.207 219.711 338.119 219.8 338.119C221.475 334.769 240.431 332.124 263.442 332.124C285.66 332.124 303.999 334.592 306.82 337.766C307.085 338.031 307.173 338.295 307.173 338.56V338.648C307.261 342.263 287.6 345.172 263.442 345.172Z" fill="#0A363F"/>
<path d="M338.472 345.878C332.124 355.135 301.001 362.189 263.442 362.189C221.387 362.189 187.266 353.284 187.266 342.351C187.266 342.351 200.491 358.309 260.797 358.309C312.639 358.397 333.535 348.611 338.472 345.878Z" fill="#0D444F"/>
<path d="M306.82 337.767C303.911 334.593 285.572 332.124 263.442 332.124C240.342 332.124 221.475 334.769 219.8 338.119C220.593 336.18 225.883 329.479 263.442 329.479C298.003 329.479 305.321 335.474 306.82 337.767Z" fill="#0D444F"/>
<path d="M172.718 332.476L157.289 222.092C157.113 220.946 156.143 220.064 154.909 220.064H134.101C132.691 220.064 131.545 221.298 131.721 222.797L136.923 264.5C137.099 266.175 135.865 267.586 134.19 267.586H110.385C108.886 267.586 107.651 266.44 107.563 264.941L105.624 222.445C105.535 221.122 104.477 220.152 103.243 220.152H83.7583C82.3476 220.152 81.2896 221.298 81.3778 222.621L84.0228 295.27C84.111 297.562 86.0506 299.414 88.343 299.414H141.331L145.475 332.653H172.718V332.476Z" fill="#78909C"/>
<path d="M463.757 332.476L448.328 222.092C448.151 220.946 447.181 220.064 445.947 220.064H425.14C423.729 220.064 422.583 221.298 422.759 222.797L427.961 264.5C428.137 266.175 426.903 267.586 425.228 267.586H401.423C399.924 267.586 398.69 266.44 398.602 264.941L396.662 222.445C396.574 221.122 395.516 220.152 394.281 220.152H374.885C373.474 220.152 372.416 221.298 372.504 222.621L375.149 295.27C375.237 297.562 377.177 299.414 379.469 299.414H432.458L436.601 332.653H463.757V332.476Z" fill="#78909C"/>
<path d="M156.672 223.238L145.034 355.135C144.858 357.604 142.742 359.544 140.273 359.544H122.816C119.907 359.544 117.702 356.987 118.055 354.165L125.373 292.361L73.09 293.242C70.1805 293.242 67.9764 290.685 68.5054 287.864L68.6817 286.718L80.6724 222.444C81.025 220.681 82.5239 219.359 84.3754 219.359H101.039C103.331 219.359 105.095 221.475 104.742 223.767L97.6004 264.324C97.3359 265.999 98.5702 267.409 100.245 267.409H125.197L131.016 222.356C131.28 220.593 132.779 219.27 134.542 219.27H153.145C155.173 219.359 156.848 221.21 156.672 223.238Z" fill="#0A363F"/>
<path d="M125.726 286.718L125.285 292.361L73.002 293.242C70.0925 293.242 67.8884 290.685 68.4174 287.864L68.5937 286.718H125.726Z" fill="#0D444F"/>
<path d="M156.672 223.238L145.034 355.135C144.858 357.604 142.742 359.544 140.273 359.544H137.628L151.47 219.359H153.145C155.173 219.359 156.848 221.21 156.672 223.238Z" fill="#0D444F"/>
<path d="M97.5123 264.412C97.2478 266.087 98.4822 267.498 100.157 267.498H95.0437C93.1922 267.498 91.6934 265.823 92.046 263.971L99.8929 219.447H101.039C103.331 219.447 105.095 221.563 104.742 223.855L97.5123 264.412Z" fill="#0D444F"/>
<path d="M447.622 223.238L435.984 355.135C435.808 357.604 433.692 359.544 431.223 359.544H413.766C410.857 359.544 408.652 356.987 409.005 354.165L416.323 292.361L364.04 293.242C361.131 293.242 358.926 290.685 359.455 287.864L359.632 286.718L371.622 222.444C371.975 220.681 373.474 219.359 375.325 219.359H391.989C394.281 219.359 396.045 221.475 395.692 223.767L388.55 264.324C388.286 265.999 389.52 267.409 391.195 267.409H416.147L421.966 222.356C422.23 220.593 423.729 219.27 425.492 219.27H444.095C446.211 219.359 447.887 221.21 447.622 223.238Z" fill="#0A363F"/>
<path d="M416.764 286.718L416.323 292.361L364.04 293.242C361.131 293.242 358.926 290.685 359.455 287.864L359.632 286.718H416.764Z" fill="#0D444F"/>
<path d="M447.622 223.238L435.984 355.135C435.808 357.604 433.692 359.544 431.223 359.544H428.578L442.42 219.359H444.095C446.211 219.359 447.887 221.21 447.622 223.238Z" fill="#0D444F"/>
<path d="M388.55 264.412C388.286 266.087 389.52 267.498 391.195 267.498H386.082C384.23 267.498 382.731 265.823 383.084 263.971L390.931 219.447H392.077C394.369 219.447 396.133 221.563 395.78 223.855L388.55 264.412Z" fill="#0D444F"/>
<path opacity="0.28" d="M228.616 250.129L210.542 341.822C209.572 346.759 212.746 351.432 217.066 351.432H312.815C317.047 351.432 320.221 346.936 319.428 342.175L304.616 250.482C303.999 246.779 301.266 244.133 298.003 244.133H235.229C232.055 244.045 229.322 246.602 228.616 250.129Z" fill="#90A4AE"/>
<path d="M310.258 255.86L318.987 284.866C319.163 285.484 319.78 285.836 320.398 285.572C320.838 285.395 321.191 284.866 321.015 284.337L315.284 254.625C314.931 253.038 313.168 252.157 311.669 252.774C310.523 253.303 309.906 254.537 310.258 255.86Z" fill="#125F6F"/>
<path d="M293.771 266.351L299.414 288.746C299.502 289.187 299.943 289.363 300.296 289.275C300.648 289.187 300.825 288.834 300.736 288.481L297.122 265.646C296.945 264.588 295.799 263.883 294.741 264.324C294.036 264.676 293.595 265.47 293.771 266.351Z" fill="#125F6F"/>
<path d="M220.24 258.681L212.922 280.987C212.834 281.428 212.305 281.604 211.953 281.428C211.6 281.252 211.424 280.899 211.512 280.546L216.802 257.711C217.066 256.653 218.301 256.036 219.27 256.477C220.152 256.918 220.505 257.799 220.24 258.681Z" fill="#125F6F"/>
<path d="M234.788 265.558L225.266 306.996C225.177 307.437 224.737 307.613 224.384 307.525C224.031 307.437 223.855 307.084 223.943 306.732L231.437 264.853C231.614 263.795 232.76 263.089 233.818 263.53C234.611 263.795 235.052 264.676 234.788 265.558Z" fill="#125F6F"/>
<path d="M254.978 270.407L250.393 300.472C250.305 300.913 249.864 301.177 249.512 301.001C249.159 300.913 248.983 300.56 248.983 300.207L251.451 269.878C251.628 268.82 252.686 268.115 253.744 268.467C254.625 268.644 255.154 269.525 254.978 270.407Z" fill="#125F6F"/>
<path d="M278.607 269.79L279.753 317.488C279.753 317.929 279.4 318.193 278.959 318.193C278.607 318.105 278.342 317.841 278.342 317.488L275.08 269.79C275.08 268.644 276.05 267.85 277.108 268.027C277.989 268.203 278.607 268.996 278.607 269.79Z" fill="#125F6F"/>
<path d="M187.002 226.5C186.032 225.354 185.326 224.208 184.797 223.062L182.77 209.484L187.442 213.804L187.002 226.5Z" fill="#90A4AE"/>
<path d="M318.546 231.085C318.546 231.085 315.637 237.168 309.289 243.957C301.354 252.421 287.952 262.031 268.027 262.031C254.008 262.031 243.604 257.358 236.198 251.716C224.56 242.899 219.976 231.614 219.976 231.614L318.546 231.085Z" fill="#78909C"/>
<path d="M318.546 231.085C318.546 231.085 315.637 237.168 309.289 243.957C302.5 246.602 294.124 248.806 283.72 250.217C263.266 252.95 247.307 252.774 236.198 251.716C224.56 242.899 219.976 231.614 219.976 231.614L318.546 231.085Z" fill="#37474F"/>
<path d="M349.581 208.955C349.581 208.955 349.052 214.51 347.289 221.387C347.024 222.356 346.583 223.503 345.878 224.561C344.026 227.558 340.5 230.82 334.769 233.906C333.799 234.435 332.653 234.964 331.507 235.493C330.625 235.934 329.743 236.287 328.774 236.728C327.451 237.257 326.129 237.785 324.718 238.315C319.781 240.078 313.962 241.577 307.085 242.987C306.556 243.076 306.115 243.164 305.586 243.252C304.263 243.516 302.676 243.693 301.001 243.869C293.948 244.663 284.602 245.192 274.639 245.368C272.788 245.368 270.936 245.456 269.085 245.456C259.651 245.544 250.129 245.28 241.841 244.839C240.078 244.751 238.315 244.663 236.728 244.486C231.878 244.134 227.646 243.605 224.561 242.987C220.064 242.106 216.008 241.136 212.394 240.078C210.895 239.637 209.484 239.196 208.073 238.755C197.141 235.141 190.528 230.732 187.09 226.677C186.561 226.059 186.12 225.53 185.767 224.913C185.415 224.384 185.062 223.767 184.886 223.238C184.621 222.621 184.357 222.092 184.268 221.475C183.475 218.213 182.858 214.862 182.593 212.305C182.241 209.396 182.152 207.456 182.152 207.456L265.911 213.716L349.669 209.043L349.581 208.955Z" fill="#90A4AE"/>
<path d="M349.493 208.779C349.493 209.396 349.052 210.189 348.258 211.159C346.054 213.716 340.764 217.507 331.771 220.946C330.625 221.387 329.391 221.827 328.068 222.268C327.451 222.445 326.834 222.709 326.217 222.885C324.894 223.326 323.484 223.767 321.985 224.12C316.959 225.53 311.14 226.853 304.44 227.823C302.853 228.087 301.177 228.352 299.414 228.528C292.008 229.498 283.72 230.115 274.463 230.291C272.7 230.291 270.848 230.379 268.997 230.379H268.908C259.475 230.379 250.746 229.939 242.899 229.233C241.136 229.057 239.373 228.881 237.697 228.704C229.057 227.734 221.387 226.324 214.774 224.737C213.275 224.384 211.776 223.943 210.366 223.591C197.229 219.976 188.589 215.479 184.621 211.776C183.828 211.071 183.21 210.278 182.77 209.66C182.241 208.867 181.976 208.162 181.976 207.456C181.976 201.196 206.663 187.883 269.349 187.883C332.036 187.795 349.493 204.459 349.493 208.779Z" fill="#78909C"/>
<path d="M233.201 195.025L187.354 213.804C185.591 212.658 183.122 210.189 182.681 209.484L231.702 194.231L233.201 195.025Z" fill="#37474F"/>
<path d="M349.493 208.867C349.493 209.396 349.052 210.189 348.258 211.159L301.177 195.025L302.676 194.319L349.493 208.867Z" fill="#37474F"/>
<path d="M240.96 199.874L214.774 224.649C213.275 224.296 211.776 223.855 210.366 223.502L239.373 199.786L240.96 199.874Z" fill="#37474F"/>
<path d="M255.331 202.783L242.899 229.233C241.136 229.057 239.373 228.881 237.698 228.704L253.744 202.695L255.331 202.783Z" fill="#37474F"/>
<path d="M304.528 227.911C302.941 228.175 301.177 228.44 299.502 228.616L287.335 202.783L289.01 202.695L304.528 227.911Z" fill="#37474F"/>
<path d="M274.463 230.379C272.7 230.379 270.848 230.468 268.997 230.468H268.908L271.024 204.459L272.7 204.37L274.463 230.379Z" fill="#37474F"/>
<path d="M331.683 220.946C330.537 221.387 329.302 221.827 327.98 222.268L296.328 199.874L298.003 199.786L331.683 220.946Z" fill="#37474F"/>
<path d="M274.551 245.192C272.7 245.192 270.848 245.28 268.997 245.28V230.379L274.463 230.291L274.551 245.192Z" fill="#90A4AE"/>
<path d="M305.409 243.076C303.999 243.34 302.5 243.516 300.825 243.693L299.414 228.528L304.44 227.823L305.409 243.076Z" fill="#90A4AE"/>
<path d="M334.681 233.818C333.711 234.347 332.565 234.876 331.419 235.405L328.068 222.18L331.683 220.946L334.681 233.818Z" fill="#90A4AE"/>
<path d="M242.899 229.233L241.841 244.663C240.078 244.574 238.315 244.486 236.728 244.31L237.786 228.704L242.899 229.233Z" fill="#90A4AE"/>
<path d="M214.774 224.649L212.306 239.902C210.807 239.461 209.396 239.02 207.985 238.579L210.278 223.502L214.774 224.649Z" fill="#90A4AE"/>
<path d="M187.442 213.98L185.679 224.825C185.326 224.296 184.974 223.679 184.797 223.15C184.533 222.533 184.268 222.004 184.18 221.387C183.387 218.124 182.77 214.774 182.505 212.217L182.77 209.572C182.77 209.572 184.268 211.335 184.886 211.953C185.415 212.482 187.442 213.98 187.442 213.98Z" fill="#90A4AE"/>
<path d="M265.205 214.95C291.159 214.95 312.198 208.99 312.198 201.637C312.198 194.285 291.159 188.324 265.205 188.324C239.252 188.324 218.213 194.285 218.213 201.637C218.213 208.99 239.252 214.95 265.205 214.95Z" fill="#37474F"/>
<path d="M308.143 199.521C308.143 199.521 304.704 203.401 296.24 206.751C289.98 209.219 280.987 211.335 268.644 211.335C261.855 211.335 255.948 210.718 251.011 209.748C234.523 206.574 227.382 199.697 227.382 199.697C227.382 199.697 230.997 172.895 253.567 163.814C258.152 161.962 263.618 160.816 269.966 160.816C301.001 160.816 308.143 199.521 308.143 199.521Z" fill="#90A4AE"/>
<path d="M251.011 209.748C234.523 206.574 227.382 199.697 227.382 199.697C227.382 199.697 230.997 172.895 253.567 163.814C249.159 167.517 244.839 174.923 244.134 187.001C243.428 195.994 245.544 203.489 251.011 209.748Z" fill="#90A4AE"/>
<path d="M308.143 199.521C308.143 199.521 304.704 203.4 296.24 206.751C294.918 201.813 292.89 197.405 292.89 197.405C292.89 197.405 284.602 199.168 280.899 191.322C277.196 183.475 286.101 177.832 286.101 177.832C286.101 177.832 283.985 171.043 273.052 166.635C262.12 162.227 253.391 163.814 253.391 163.814C257.976 161.962 263.442 160.816 269.79 160.816C301.001 160.816 308.143 199.521 308.143 199.521Z" fill="#90A4AE"/>
<path d="M272.611 182.946C273.926 182.946 274.992 181.92 274.992 180.653C274.992 179.387 273.926 178.361 272.611 178.361C271.297 178.361 270.231 179.387 270.231 180.653C270.231 181.92 271.297 182.946 272.611 182.946Z" fill="#90A4AE"/>
<path d="M264.324 185.15C265.346 185.15 266.175 184.361 266.175 183.387C266.175 182.413 265.346 181.623 264.324 181.623C263.301 181.623 262.472 182.413 262.472 183.387C262.472 184.361 263.301 185.15 264.324 185.15Z" fill="#90A4AE"/>
<path d="M269.878 197.053C271.875 197.053 273.493 195.474 273.493 193.526C273.493 191.578 271.875 189.999 269.878 189.999C267.882 189.999 266.263 191.578 266.263 193.526C266.263 195.474 267.882 197.053 269.878 197.053Z" fill="#90A4AE"/>
</svg>
