<svg width="118" height="100" viewBox="0 0 118 100" fill="none" xmlns="http://www.w3.org/2000/svg">
<path d="M74.8708 0.328412C58.7772 -1.74298 45.587 6.14594 31.3848 19.4264C19.8599 30.1947 1.14304 30.9047 0.0377111 48.0733C-1.30342 68.9733 33.507 70.653 43.7595 80.7553C71.0145 107.688 106.301 104.118 115.419 79.3939C123.54 57.3872 110.32 47.138 105.658 32.9761C98.9129 12.5609 91.8535 2.51243 74.8708 0.328412Z" fill="#5f63f2" fill-opacity="0.2"/>
<circle cx="63.9167" cy="49.4559" r="35.3088" fill="white" stroke="#5f63f2" stroke-width="4"/>
<g clip-path="url(#clip0)">
<path d="M76.6177 37.7799H51.3497C50.935 37.7799 50.5467 37.8819 50.1954 38.05L63.9238 51.7784L67.0008 48.8213C67.0008 48.8213 67.0011 48.821 67.0011 48.8209C67.0012 48.8208 67.0014 48.8207 67.0014 48.8207L77.7725 38.0502C77.4211 37.882 77.0326 37.7799 76.6177 37.7799Z" fill="#5f63f2"/>
<path d="M79.0425 39.3204L68.9064 49.456L79.0421 59.5917C79.2102 59.2404 79.3122 58.8521 79.3122 58.4374V40.4744C79.3122 40.0599 79.2104 39.6716 79.0425 39.3204Z" fill="#5f63f2"/>
<path d="M48.9254 39.32C48.7573 39.6713 48.6553 40.0596 48.6553 40.4744V58.4374C48.6553 58.8519 48.7572 59.2403 48.9251 59.5915L59.0612 49.4559L48.9254 39.32Z" fill="#5f63f2"/>
<path d="M67.6363 50.7261L64.5589 53.6836C64.3834 53.859 64.1536 53.9467 63.9239 53.9467C63.6941 53.9467 63.4643 53.859 63.2889 53.6836L60.3312 50.726L50.1949 60.8616C50.5463 61.0298 50.9348 61.1319 51.3497 61.1319H76.6177C77.0325 61.1319 77.4208 61.0299 77.7721 60.8618L67.6363 50.7261Z" fill="#5f63f2"/>
<ellipse cx="76.9314" cy="38.7549" rx="5.20588" ry="5.20588" fill="white"/>
</g>
<circle cx="76.9315" cy="38.7549" r="2.89216" fill="#DA1414"/>
<rect x="28.3431" y="70.5686" width="19.0882" height="19.0882" fill="white"/>
<mask id="mask0" style="mask-type:alpha" maskUnits="userSpaceOnUse" x="23" y="64" width="31" height="31">
<path fill-rule="evenodd" clip-rule="evenodd" d="M23.2337 79.2451C23.2337 70.9966 29.9281 64.3023 38.1765 64.3023C46.4249 64.3023 53.1193 70.9966 53.1193 79.2451C53.1193 87.4935 46.4249 94.1879 38.1765 94.1879C29.9281 94.1879 23.2337 87.4935 23.2337 79.2451ZM39.6708 80.7394H44.1536C44.9755 80.7394 45.6479 80.0669 45.6479 79.2451C45.6479 78.4232 44.9755 77.7508 44.1536 77.7508H39.6708V73.268C39.6708 72.4461 38.9983 71.7737 38.1765 71.7737C37.3546 71.7737 36.6822 72.4461 36.6822 73.268V77.7508H32.1994C31.3775 77.7508 30.7051 78.4232 30.7051 79.2451C30.7051 80.0669 31.3775 80.7394 32.1994 80.7394H36.6822V85.2222C36.6822 86.0441 37.3546 86.7165 38.1765 86.7165C38.9983 86.7165 39.6708 86.0441 39.6708 85.2222V80.7394Z" fill="black"/>
</mask>
<g mask="url(#mask0)">
<rect x="20.2451" y="61.3137" width="35.8627" height="35.8627" fill="#5f63f2"/>
</g>
<defs>
<clipPath id="clip0">
<rect width="30.6569" height="30.6569" fill="white" transform="translate(48.6553 34.1275)"/>
</clipPath>
</defs>
</svg>
