<svg width="440" height="270" viewBox="0 0 440 270" fill="none" xmlns="http://www.w3.org/2000/svg">
<path d="M35.8086 226.361C35.8086 227.631 35.5918 228.574 35.1582 229.191C34.7246 229.809 34.0469 230.117 33.125 230.117C32.2148 230.117 31.541 229.816 31.1035 229.215C30.666 228.609 30.4395 227.707 30.4238 226.508V225.061C30.4238 223.807 30.6406 222.875 31.0742 222.266C31.5078 221.656 32.1875 221.352 33.1133 221.352C34.0312 221.352 34.707 221.646 35.1406 222.236C35.5742 222.822 35.7969 223.729 35.8086 224.955V226.361ZM34.7246 224.879C34.7246 223.961 34.5957 223.293 34.3379 222.875C34.0801 222.453 33.6719 222.242 33.1133 222.242C32.5586 222.242 32.1543 222.451 31.9004 222.869C31.6465 223.287 31.5156 223.93 31.5078 224.797V226.531C31.5078 227.453 31.6406 228.135 31.9062 228.576C32.1758 229.014 32.582 229.232 33.125 229.232C33.6602 229.232 34.0566 229.025 34.3145 228.611C34.5762 228.197 34.7129 227.545 34.7246 226.654V224.879Z" fill="#888888"/>
<path d="M49.25 231.5H415" stroke="#41505F" stroke-opacity="0.07" stroke-width="0.5"/>
<path d="M19.0488 178.5H13.459V177.721L16.4121 174.439C16.8496 173.943 17.1504 173.541 17.3145 173.232C17.4824 172.92 17.5664 172.598 17.5664 172.266C17.5664 171.82 17.4316 171.455 17.1621 171.17C16.8926 170.885 16.5332 170.742 16.084 170.742C15.5449 170.742 15.125 170.896 14.8242 171.205C14.5273 171.51 14.3789 171.936 14.3789 172.482H13.2949C13.2949 171.697 13.5469 171.062 14.0508 170.578C14.5586 170.094 15.2363 169.852 16.084 169.852C16.877 169.852 17.5039 170.061 17.9648 170.479C18.4258 170.893 18.6562 171.445 18.6562 172.137C18.6562 172.977 18.1211 173.977 17.0508 175.137L14.7656 177.615H19.0488V178.5ZM25.7871 178.5H20.1973V177.721L23.1504 174.439C23.5879 173.943 23.8887 173.541 24.0527 173.232C24.2207 172.92 24.3047 172.598 24.3047 172.266C24.3047 171.82 24.1699 171.455 23.9004 171.17C23.6309 170.885 23.2715 170.742 22.8223 170.742C22.2832 170.742 21.8633 170.896 21.5625 171.205C21.2656 171.51 21.1172 171.936 21.1172 172.482H20.0332C20.0332 171.697 20.2852 171.062 20.7891 170.578C21.2969 170.094 21.9746 169.852 22.8223 169.852C23.6152 169.852 24.2422 170.061 24.7031 170.479C25.1641 170.893 25.3945 171.445 25.3945 172.137C25.3945 172.977 24.8594 173.977 23.7891 175.137L21.5039 177.615H25.7871V178.5ZM27.0703 177.932C27.0703 177.744 27.125 177.588 27.2344 177.463C27.3477 177.338 27.5156 177.275 27.7383 177.275C27.9609 177.275 28.1289 177.338 28.2422 177.463C28.3594 177.588 28.418 177.744 28.418 177.932C28.418 178.111 28.3594 178.262 28.2422 178.383C28.1289 178.504 27.9609 178.564 27.7383 178.564C27.5156 178.564 27.3477 178.504 27.2344 178.383C27.125 178.262 27.0703 178.111 27.0703 177.932ZM30.5977 174.223L31.0312 169.969H35.4023V170.971H31.9512L31.6934 173.297C32.1113 173.051 32.5859 172.928 33.1172 172.928C33.8945 172.928 34.5117 173.186 34.9688 173.701C35.4258 174.213 35.6543 174.906 35.6543 175.781C35.6543 176.66 35.416 177.354 34.9395 177.861C34.4668 178.365 33.8047 178.617 32.9531 178.617C32.1992 178.617 31.584 178.408 31.1074 177.99C30.6309 177.572 30.3594 176.994 30.293 176.256H31.3184C31.3848 176.744 31.5586 177.113 31.8398 177.363C32.1211 177.609 32.4922 177.732 32.9531 177.732C33.457 177.732 33.8516 177.561 34.1367 177.217C34.4258 176.873 34.5703 176.398 34.5703 175.793C34.5703 175.223 34.4141 174.766 34.1016 174.422C33.793 174.074 33.3809 173.9 32.8652 173.9C32.3926 173.9 32.0215 174.004 31.752 174.211L31.4648 174.445L30.5977 174.223Z" fill="#888888"/>
<path d="M49.25 179.5H415" stroke="#41505F" stroke-opacity="0.07" stroke-width="0.5"/>
<path d="M28.0352 124.135H29.2188V125.02H28.0352V127H26.9453V125.02H23.0605V124.381L26.8809 118.469H28.0352V124.135ZM24.291 124.135H26.9453V119.951L26.8164 120.186L24.291 124.135ZM30.6953 122.723L31.1289 118.469H35.5V119.471H32.0488L31.791 121.797C32.209 121.551 32.6836 121.428 33.2148 121.428C33.9922 121.428 34.6094 121.686 35.0664 122.201C35.5234 122.713 35.752 123.406 35.752 124.281C35.752 125.16 35.5137 125.854 35.0371 126.361C34.5645 126.865 33.9023 127.117 33.0508 127.117C32.2969 127.117 31.6816 126.908 31.2051 126.49C30.7285 126.072 30.457 125.494 30.3906 124.756H31.416C31.4824 125.244 31.6562 125.613 31.9375 125.863C32.2188 126.109 32.5898 126.232 33.0508 126.232C33.5547 126.232 33.9492 126.061 34.2344 125.717C34.5234 125.373 34.668 124.898 34.668 124.293C34.668 123.723 34.5117 123.266 34.1992 122.922C33.8906 122.574 33.4785 122.4 32.9629 122.4C32.4902 122.4 32.1191 122.504 31.8496 122.711L31.5625 122.945L30.6953 122.723Z" fill="#888888"/>
<path d="M49.25 128.5H415" stroke="#41505F" stroke-opacity="0.07" stroke-width="0.5"/>
<path d="M17.7129 66.9629V67.8828H17.5137C16.6699 67.8984 15.998 68.1484 15.498 68.6328C14.998 69.1172 14.709 69.7988 14.6309 70.6777C15.0801 70.1621 15.6934 69.9043 16.4707 69.9043C17.2129 69.9043 17.8047 70.166 18.2461 70.6895C18.6914 71.2129 18.9141 71.8887 18.9141 72.7168C18.9141 73.5957 18.6738 74.2988 18.1934 74.8262C17.7168 75.3535 17.0762 75.6172 16.2715 75.6172C15.4551 75.6172 14.793 75.3047 14.2852 74.6797C13.7773 74.0508 13.5234 73.2422 13.5234 72.2539V71.8379C13.5234 70.2676 13.8574 69.0684 14.5254 68.2402C15.1973 67.4082 16.1953 66.9824 17.5195 66.9629H17.7129ZM16.2891 70.8066C15.918 70.8066 15.5762 70.918 15.2637 71.1406C14.9512 71.3633 14.7344 71.6426 14.6133 71.9785V72.377C14.6133 73.0801 14.7715 73.6465 15.0879 74.0762C15.4043 74.5059 15.7988 74.7207 16.2715 74.7207C16.7598 74.7207 17.1426 74.541 17.4199 74.1816C17.7012 73.8223 17.8418 73.3516 17.8418 72.7695C17.8418 72.1836 17.6992 71.7109 17.4141 71.3516C17.1328 70.9883 16.7578 70.8066 16.2891 70.8066ZM25.7051 67.5781L22.1719 75.5H21.0352L24.5566 67.8594H19.9395V66.9688H25.7051V67.5781ZM27.0703 74.9316C27.0703 74.7441 27.125 74.5879 27.2344 74.4629C27.3477 74.3379 27.5156 74.2754 27.7383 74.2754C27.9609 74.2754 28.1289 74.3379 28.2422 74.4629C28.3594 74.5879 28.418 74.7441 28.418 74.9316C28.418 75.1113 28.3594 75.2617 28.2422 75.3828C28.1289 75.5039 27.9609 75.5645 27.7383 75.5645C27.5156 75.5645 27.3477 75.5039 27.2344 75.3828C27.125 75.2617 27.0703 75.1113 27.0703 74.9316ZM30.5977 71.2227L31.0312 66.9688H35.4023V67.9707H31.9512L31.6934 70.2969C32.1113 70.0508 32.5859 69.9277 33.1172 69.9277C33.8945 69.9277 34.5117 70.1855 34.9688 70.7012C35.4258 71.2129 35.6543 71.9062 35.6543 72.7812C35.6543 73.6602 35.416 74.3535 34.9395 74.8613C34.4668 75.3652 33.8047 75.6172 32.9531 75.6172C32.1992 75.6172 31.584 75.4082 31.1074 74.9902C30.6309 74.5723 30.3594 73.9941 30.293 73.2559H31.3184C31.3848 73.7441 31.5586 74.1133 31.8398 74.3633C32.1211 74.6094 32.4922 74.7324 32.9531 74.7324C33.457 74.7324 33.8516 74.5605 34.1367 74.2168C34.4258 73.873 34.5703 73.3984 34.5703 72.793C34.5703 72.2227 34.4141 71.7656 34.1016 71.4219C33.793 71.0742 33.3809 70.9004 32.8652 70.9004C32.3926 70.9004 32.0215 71.0039 31.752 71.2109L31.4648 71.4453L30.5977 71.2227Z" fill="#888888"/>
<path d="M49.25 76.5H415" stroke="#41505F" stroke-opacity="0.07" stroke-width="0.5"/>
<path d="M27.6133 20.25C27.3867 20.5195 27.1152 20.7363 26.7988 20.9004C26.4863 21.0645 26.1426 21.1465 25.7676 21.1465C25.2754 21.1465 24.8457 21.0254 24.4785 20.7832C24.1152 20.541 23.834 20.2012 23.6348 19.7637C23.4355 19.3223 23.3359 18.8359 23.3359 18.3047C23.3359 17.7344 23.4434 17.2207 23.6582 16.7637C23.877 16.3066 24.1855 15.957 24.584 15.7148C24.9824 15.4727 25.4473 15.3516 25.9785 15.3516C26.8223 15.3516 27.4863 15.668 27.9707 16.3008C28.459 16.9297 28.7031 17.7891 28.7031 18.8789V19.1953C28.7031 20.8555 28.375 22.0684 27.7188 22.834C27.0625 23.5957 26.0723 23.9863 24.748 24.0059H24.5371V23.0918H24.7656C25.6602 23.0762 26.3477 22.8438 26.8281 22.3945C27.3086 21.9414 27.5703 21.2266 27.6133 20.25ZM25.9434 20.25C26.3066 20.25 26.6406 20.1387 26.9453 19.916C27.2539 19.6934 27.4785 19.418 27.6191 19.0898V18.6562C27.6191 17.9453 27.4648 17.3672 27.1562 16.9219C26.8477 16.4766 26.457 16.2539 25.9844 16.2539C25.5078 16.2539 25.125 16.4375 24.8359 16.8047C24.5469 17.168 24.4023 17.6484 24.4023 18.2461C24.4023 18.8281 24.541 19.3086 24.8184 19.6875C25.0996 20.0625 25.4746 20.25 25.9434 20.25ZM35.5469 20.3613C35.5469 21.6309 35.3301 22.5742 34.8965 23.1914C34.4629 23.8086 33.7852 24.1172 32.8633 24.1172C31.9531 24.1172 31.2793 23.8164 30.8418 23.2148C30.4043 22.6094 30.1777 21.707 30.1621 20.5078V19.0605C30.1621 17.8066 30.3789 16.875 30.8125 16.2656C31.2461 15.6562 31.9258 15.3516 32.8516 15.3516C33.7695 15.3516 34.4453 15.6465 34.8789 16.2363C35.3125 16.8223 35.5352 17.7285 35.5469 18.9551V20.3613ZM34.4629 18.8789C34.4629 17.9609 34.334 17.293 34.0762 16.875C33.8184 16.4531 33.4102 16.2422 32.8516 16.2422C32.2969 16.2422 31.8926 16.4512 31.6387 16.8691C31.3848 17.2871 31.2539 17.9297 31.2461 18.7969V20.5312C31.2461 21.4531 31.3789 22.1348 31.6445 22.5762C31.9141 23.0137 32.3203 23.2324 32.8633 23.2324C33.3984 23.2324 33.7949 23.0254 34.0527 22.6113C34.3145 22.1973 34.4512 21.5449 34.4629 20.6543V18.8789Z" fill="#888888"/>
<path d="M49.25 25.5H415" stroke="#41505F" stroke-opacity="0.07" stroke-width="0.5"/>
<path d="M381.674 249.5H376.084V248.721L379.037 245.439C379.475 244.943 379.775 244.541 379.939 244.232C380.107 243.92 380.191 243.598 380.191 243.266C380.191 242.82 380.057 242.455 379.787 242.17C379.518 241.885 379.158 241.742 378.709 241.742C378.17 241.742 377.75 241.896 377.449 242.205C377.152 242.51 377.004 242.936 377.004 243.482H375.92C375.92 242.697 376.172 242.062 376.676 241.578C377.184 241.094 377.861 240.852 378.709 240.852C379.502 240.852 380.129 241.061 380.59 241.479C381.051 241.893 381.281 242.445 381.281 243.137C381.281 243.977 380.746 244.977 379.676 246.137L377.391 248.615H381.674V249.5ZM388.172 245.861C388.172 247.131 387.955 248.074 387.521 248.691C387.088 249.309 386.41 249.617 385.488 249.617C384.578 249.617 383.904 249.316 383.467 248.715C383.029 248.109 382.803 247.207 382.787 246.008V244.561C382.787 243.307 383.004 242.375 383.438 241.766C383.871 241.156 384.551 240.852 385.477 240.852C386.395 240.852 387.07 241.146 387.504 241.736C387.938 242.322 388.16 243.229 388.172 244.455V245.861ZM387.088 244.379C387.088 243.461 386.959 242.793 386.701 242.375C386.443 241.953 386.035 241.742 385.477 241.742C384.922 241.742 384.518 241.951 384.264 242.369C384.01 242.787 383.879 243.43 383.871 244.297V246.031C383.871 246.953 384.004 247.635 384.27 248.076C384.539 248.514 384.945 248.732 385.488 248.732C386.023 248.732 386.42 248.525 386.678 248.111C386.939 247.697 387.076 247.045 387.088 246.154V244.379ZM393.123 249.5H392.033V242.275L389.848 243.078V242.094L392.953 240.928H393.123V249.5ZM401.473 243.195C401.473 243.621 401.359 244 401.133 244.332C400.91 244.664 400.607 244.924 400.225 245.111C400.67 245.303 401.021 245.582 401.279 245.949C401.541 246.316 401.672 246.732 401.672 247.197C401.672 247.936 401.422 248.523 400.922 248.961C400.426 249.398 399.771 249.617 398.959 249.617C398.139 249.617 397.48 249.398 396.984 248.961C396.492 248.52 396.246 247.932 396.246 247.197C396.246 246.736 396.371 246.32 396.621 245.949C396.875 245.578 397.225 245.297 397.67 245.105C397.291 244.918 396.992 244.658 396.773 244.326C396.555 243.994 396.445 243.617 396.445 243.195C396.445 242.477 396.676 241.906 397.137 241.484C397.598 241.062 398.205 240.852 398.959 240.852C399.709 240.852 400.314 241.062 400.775 241.484C401.24 241.906 401.473 242.477 401.473 243.195ZM400.588 247.174C400.588 246.697 400.436 246.309 400.131 246.008C399.83 245.707 399.436 245.557 398.947 245.557C398.459 245.557 398.066 245.705 397.77 246.002C397.477 246.299 397.33 246.689 397.33 247.174C397.33 247.658 397.473 248.039 397.758 248.316C398.047 248.594 398.447 248.732 398.959 248.732C399.467 248.732 399.865 248.594 400.154 248.316C400.443 248.035 400.588 247.654 400.588 247.174ZM398.959 241.742C398.533 241.742 398.188 241.875 397.922 242.141C397.66 242.402 397.529 242.76 397.529 243.213C397.529 243.646 397.658 243.998 397.916 244.268C398.178 244.533 398.525 244.666 398.959 244.666C399.393 244.666 399.738 244.533 399.996 244.268C400.258 243.998 400.389 243.646 400.389 243.213C400.389 242.779 400.254 242.426 399.984 242.152C399.715 241.879 399.373 241.742 398.959 241.742Z" fill="#888888"/>
<path d="M329.424 249.5H323.834V248.721L326.787 245.439C327.225 244.943 327.525 244.541 327.689 244.232C327.857 243.92 327.941 243.598 327.941 243.266C327.941 242.82 327.807 242.455 327.537 242.17C327.268 241.885 326.908 241.742 326.459 241.742C325.92 241.742 325.5 241.896 325.199 242.205C324.902 242.51 324.754 242.936 324.754 243.482H323.67C323.67 242.697 323.922 242.062 324.426 241.578C324.934 241.094 325.611 240.852 326.459 240.852C327.252 240.852 327.879 241.061 328.34 241.479C328.801 241.893 329.031 242.445 329.031 243.137C329.031 243.977 328.496 244.977 327.426 246.137L325.141 248.615H329.424V249.5ZM335.922 245.861C335.922 247.131 335.705 248.074 335.271 248.691C334.838 249.309 334.16 249.617 333.238 249.617C332.328 249.617 331.654 249.316 331.217 248.715C330.779 248.109 330.553 247.207 330.537 246.008V244.561C330.537 243.307 330.754 242.375 331.188 241.766C331.621 241.156 332.301 240.852 333.227 240.852C334.145 240.852 334.82 241.146 335.254 241.736C335.688 242.322 335.91 243.229 335.922 244.455V245.861ZM334.838 244.379C334.838 243.461 334.709 242.793 334.451 242.375C334.193 241.953 333.785 241.742 333.227 241.742C332.672 241.742 332.268 241.951 332.014 242.369C331.76 242.787 331.629 243.43 331.621 244.297V246.031C331.621 246.953 331.754 247.635 332.02 248.076C332.289 248.514 332.695 248.732 333.238 248.732C333.773 248.732 334.17 248.525 334.428 248.111C334.689 247.697 334.826 247.045 334.838 246.154V244.379ZM340.873 249.5H339.783V242.275L337.598 243.078V242.094L340.703 240.928H340.873V249.5ZM349.557 241.578L346.023 249.5H344.887L348.408 241.859H343.791V240.969H349.557V241.578Z" fill="#888888"/>
<path d="M277.174 249.5H271.584V248.721L274.537 245.439C274.975 244.943 275.275 244.541 275.439 244.232C275.607 243.92 275.691 243.598 275.691 243.266C275.691 242.82 275.557 242.455 275.287 242.17C275.018 241.885 274.658 241.742 274.209 241.742C273.67 241.742 273.25 241.896 272.949 242.205C272.652 242.51 272.504 242.936 272.504 243.482H271.42C271.42 242.697 271.672 242.062 272.176 241.578C272.684 241.094 273.361 240.852 274.209 240.852C275.002 240.852 275.629 241.061 276.09 241.479C276.551 241.893 276.781 242.445 276.781 243.137C276.781 243.977 276.246 244.977 275.176 246.137L272.891 248.615H277.174V249.5ZM283.672 245.861C283.672 247.131 283.455 248.074 283.021 248.691C282.588 249.309 281.91 249.617 280.988 249.617C280.078 249.617 279.404 249.316 278.967 248.715C278.529 248.109 278.303 247.207 278.287 246.008V244.561C278.287 243.307 278.504 242.375 278.938 241.766C279.371 241.156 280.051 240.852 280.977 240.852C281.895 240.852 282.57 241.146 283.004 241.736C283.438 242.322 283.66 243.229 283.672 244.455V245.861ZM282.588 244.379C282.588 243.461 282.459 242.793 282.201 242.375C281.943 241.953 281.535 241.742 280.977 241.742C280.422 241.742 280.018 241.951 279.764 242.369C279.51 242.787 279.379 243.43 279.371 244.297V246.031C279.371 246.953 279.504 247.635 279.77 248.076C280.039 248.514 280.445 248.732 280.988 248.732C281.523 248.732 281.92 248.525 282.178 248.111C282.439 247.697 282.576 247.045 282.588 246.154V244.379ZM288.623 249.5H287.533V242.275L285.348 243.078V242.094L288.453 240.928H288.623V249.5ZM296.053 240.963V241.883H295.854C295.01 241.898 294.338 242.148 293.838 242.633C293.338 243.117 293.049 243.799 292.971 244.678C293.42 244.162 294.033 243.904 294.811 243.904C295.553 243.904 296.145 244.166 296.586 244.689C297.031 245.213 297.254 245.889 297.254 246.717C297.254 247.596 297.014 248.299 296.533 248.826C296.057 249.354 295.416 249.617 294.611 249.617C293.795 249.617 293.133 249.305 292.625 248.68C292.117 248.051 291.863 247.242 291.863 246.254V245.838C291.863 244.268 292.197 243.068 292.865 242.24C293.537 241.408 294.535 240.982 295.859 240.963H296.053ZM294.629 244.807C294.258 244.807 293.916 244.918 293.604 245.141C293.291 245.363 293.074 245.643 292.953 245.979V246.377C292.953 247.08 293.111 247.646 293.428 248.076C293.744 248.506 294.139 248.721 294.611 248.721C295.1 248.721 295.482 248.541 295.76 248.182C296.041 247.822 296.182 247.352 296.182 246.77C296.182 246.184 296.039 245.711 295.754 245.352C295.473 244.988 295.098 244.807 294.629 244.807Z" fill="#888888"/>
<path d="M224.924 249.5H219.334V248.721L222.287 245.439C222.725 244.943 223.025 244.541 223.189 244.232C223.357 243.92 223.441 243.598 223.441 243.266C223.441 242.82 223.307 242.455 223.037 242.17C222.768 241.885 222.408 241.742 221.959 241.742C221.42 241.742 221 241.896 220.699 242.205C220.402 242.51 220.254 242.936 220.254 243.482H219.17C219.17 242.697 219.422 242.062 219.926 241.578C220.434 241.094 221.111 240.852 221.959 240.852C222.752 240.852 223.379 241.061 223.84 241.479C224.301 241.893 224.531 242.445 224.531 243.137C224.531 243.977 223.996 244.977 222.926 246.137L220.641 248.615H224.924V249.5ZM231.422 245.861C231.422 247.131 231.205 248.074 230.771 248.691C230.338 249.309 229.66 249.617 228.738 249.617C227.828 249.617 227.154 249.316 226.717 248.715C226.279 248.109 226.053 247.207 226.037 246.008V244.561C226.037 243.307 226.254 242.375 226.688 241.766C227.121 241.156 227.801 240.852 228.727 240.852C229.645 240.852 230.32 241.146 230.754 241.736C231.188 242.322 231.41 243.229 231.422 244.455V245.861ZM230.338 244.379C230.338 243.461 230.209 242.793 229.951 242.375C229.693 241.953 229.285 241.742 228.727 241.742C228.172 241.742 227.768 241.951 227.514 242.369C227.26 242.787 227.129 243.43 227.121 244.297V246.031C227.121 246.953 227.254 247.635 227.52 248.076C227.789 248.514 228.195 248.732 228.738 248.732C229.273 248.732 229.67 248.525 229.928 248.111C230.189 247.697 230.326 247.045 230.338 246.154V244.379ZM236.373 249.5H235.283V242.275L233.098 243.078V242.094L236.203 240.928H236.373V249.5ZM240.047 245.223L240.48 240.969H244.852V241.971H241.4L241.143 244.297C241.561 244.051 242.035 243.928 242.566 243.928C243.344 243.928 243.961 244.186 244.418 244.701C244.875 245.213 245.104 245.906 245.104 246.781C245.104 247.66 244.865 248.354 244.389 248.861C243.916 249.365 243.254 249.617 242.402 249.617C241.648 249.617 241.033 249.408 240.557 248.99C240.08 248.572 239.809 247.994 239.742 247.256H240.768C240.834 247.744 241.008 248.113 241.289 248.363C241.57 248.609 241.941 248.732 242.402 248.732C242.906 248.732 243.301 248.561 243.586 248.217C243.875 247.873 244.02 247.398 244.02 246.793C244.02 246.223 243.863 245.766 243.551 245.422C243.242 245.074 242.83 244.9 242.314 244.9C241.842 244.9 241.471 245.004 241.201 245.211L240.914 245.445L240.047 245.223Z" fill="#888888"/>
<path d="M172.674 249.5H167.084V248.721L170.037 245.439C170.475 244.943 170.775 244.541 170.939 244.232C171.107 243.92 171.191 243.598 171.191 243.266C171.191 242.82 171.057 242.455 170.787 242.17C170.518 241.885 170.158 241.742 169.709 241.742C169.17 241.742 168.75 241.896 168.449 242.205C168.152 242.51 168.004 242.936 168.004 243.482H166.92C166.92 242.697 167.172 242.062 167.676 241.578C168.184 241.094 168.861 240.852 169.709 240.852C170.502 240.852 171.129 241.061 171.59 241.479C172.051 241.893 172.281 242.445 172.281 243.137C172.281 243.977 171.746 244.977 170.676 246.137L168.391 248.615H172.674V249.5ZM179.172 245.861C179.172 247.131 178.955 248.074 178.521 248.691C178.088 249.309 177.41 249.617 176.488 249.617C175.578 249.617 174.904 249.316 174.467 248.715C174.029 248.109 173.803 247.207 173.787 246.008V244.561C173.787 243.307 174.004 242.375 174.438 241.766C174.871 241.156 175.551 240.852 176.477 240.852C177.395 240.852 178.07 241.146 178.504 241.736C178.938 242.322 179.16 243.229 179.172 244.455V245.861ZM178.088 244.379C178.088 243.461 177.959 242.793 177.701 242.375C177.443 241.953 177.035 241.742 176.477 241.742C175.922 241.742 175.518 241.951 175.264 242.369C175.01 242.787 174.879 243.43 174.871 244.297V246.031C174.871 246.953 175.004 247.635 175.27 248.076C175.539 248.514 175.945 248.732 176.488 248.732C177.023 248.732 177.42 248.525 177.678 248.111C177.939 247.697 178.076 247.045 178.088 246.154V244.379ZM184.123 249.5H183.033V242.275L180.848 243.078V242.094L183.953 240.928H184.123V249.5ZM191.875 246.635H193.059V247.52H191.875V249.5H190.785V247.52H186.9V246.881L190.721 240.969H191.875V246.635ZM188.131 246.635H190.785V242.451L190.656 242.686L188.131 246.635Z" fill="#888888"/>
<path d="M120.424 249.5H114.834V248.721L117.787 245.439C118.225 244.943 118.525 244.541 118.689 244.232C118.857 243.92 118.941 243.598 118.941 243.266C118.941 242.82 118.807 242.455 118.537 242.17C118.268 241.885 117.908 241.742 117.459 241.742C116.92 241.742 116.5 241.896 116.199 242.205C115.902 242.51 115.754 242.936 115.754 243.482H114.67C114.67 242.697 114.922 242.062 115.426 241.578C115.934 241.094 116.611 240.852 117.459 240.852C118.252 240.852 118.879 241.061 119.34 241.479C119.801 241.893 120.031 242.445 120.031 243.137C120.031 243.977 119.496 244.977 118.426 246.137L116.141 248.615H120.424V249.5ZM126.922 245.861C126.922 247.131 126.705 248.074 126.271 248.691C125.838 249.309 125.16 249.617 124.238 249.617C123.328 249.617 122.654 249.316 122.217 248.715C121.779 248.109 121.553 247.207 121.537 246.008V244.561C121.537 243.307 121.754 242.375 122.188 241.766C122.621 241.156 123.301 240.852 124.227 240.852C125.145 240.852 125.82 241.146 126.254 241.736C126.688 242.322 126.91 243.229 126.922 244.455V245.861ZM125.838 244.379C125.838 243.461 125.709 242.793 125.451 242.375C125.193 241.953 124.785 241.742 124.227 241.742C123.672 241.742 123.268 241.951 123.014 242.369C122.76 242.787 122.629 243.43 122.621 244.297V246.031C122.621 246.953 122.754 247.635 123.02 248.076C123.289 248.514 123.695 248.732 124.238 248.732C124.773 248.732 125.17 248.525 125.428 248.111C125.689 247.697 125.826 247.045 125.838 246.154V244.379ZM131.873 249.5H130.783V242.275L128.598 243.078V242.094L131.703 240.928H131.873V249.5ZM136.625 244.707H137.439C137.951 244.699 138.354 244.564 138.646 244.303C138.939 244.041 139.086 243.688 139.086 243.242C139.086 242.242 138.588 241.742 137.592 241.742C137.123 241.742 136.748 241.877 136.467 242.146C136.189 242.412 136.051 242.766 136.051 243.207H134.967C134.967 242.531 135.213 241.971 135.705 241.525C136.201 241.076 136.83 240.852 137.592 240.852C138.396 240.852 139.027 241.064 139.484 241.49C139.941 241.916 140.17 242.508 140.17 243.266C140.17 243.637 140.049 243.996 139.807 244.344C139.568 244.691 139.242 244.951 138.828 245.123C139.297 245.271 139.658 245.518 139.912 245.861C140.17 246.205 140.299 246.625 140.299 247.121C140.299 247.887 140.049 248.494 139.549 248.943C139.049 249.393 138.398 249.617 137.598 249.617C136.797 249.617 136.145 249.4 135.641 248.967C135.141 248.533 134.891 247.961 134.891 247.25H135.98C135.98 247.699 136.127 248.059 136.42 248.328C136.713 248.598 137.105 248.732 137.598 248.732C138.121 248.732 138.521 248.596 138.799 248.322C139.076 248.049 139.215 247.656 139.215 247.145C139.215 246.648 139.062 246.268 138.758 246.002C138.453 245.736 138.014 245.6 137.439 245.592H136.625V244.707Z" fill="#888888"/>
<path d="M68.1738 249.5H62.584V248.721L65.5371 245.439C65.9746 244.943 66.2754 244.541 66.4395 244.232C66.6074 243.92 66.6914 243.598 66.6914 243.266C66.6914 242.82 66.5566 242.455 66.2871 242.17C66.0176 241.885 65.6582 241.742 65.209 241.742C64.6699 241.742 64.25 241.896 63.9492 242.205C63.6523 242.51 63.5039 242.936 63.5039 243.482H62.4199C62.4199 242.697 62.6719 242.062 63.1758 241.578C63.6836 241.094 64.3613 240.852 65.209 240.852C66.002 240.852 66.6289 241.061 67.0898 241.479C67.5508 241.893 67.7812 242.445 67.7812 243.137C67.7812 243.977 67.2461 244.977 66.1758 246.137L63.8906 248.615H68.1738V249.5ZM74.6719 245.861C74.6719 247.131 74.4551 248.074 74.0215 248.691C73.5879 249.309 72.9102 249.617 71.9883 249.617C71.0781 249.617 70.4043 249.316 69.9668 248.715C69.5293 248.109 69.3027 247.207 69.2871 246.008V244.561C69.2871 243.307 69.5039 242.375 69.9375 241.766C70.3711 241.156 71.0508 240.852 71.9766 240.852C72.8945 240.852 73.5703 241.146 74.0039 241.736C74.4375 242.322 74.6602 243.229 74.6719 244.455V245.861ZM73.5879 244.379C73.5879 243.461 73.459 242.793 73.2012 242.375C72.9434 241.953 72.5352 241.742 71.9766 241.742C71.4219 241.742 71.0176 241.951 70.7637 242.369C70.5098 242.787 70.3789 243.43 70.3711 244.297V246.031C70.3711 246.953 70.5039 247.635 70.7695 248.076C71.0391 248.514 71.4453 248.732 71.9883 248.732C72.5234 248.732 72.9199 248.525 73.1777 248.111C73.4395 247.697 73.5762 247.045 73.5879 246.154V244.379ZM79.623 249.5H78.5332V242.275L76.3477 243.078V242.094L79.4531 240.928H79.623V249.5ZM88.3887 249.5H82.7988V248.721L85.752 245.439C86.1895 244.943 86.4902 244.541 86.6543 244.232C86.8223 243.92 86.9062 243.598 86.9062 243.266C86.9062 242.82 86.7715 242.455 86.502 242.17C86.2324 241.885 85.873 241.742 85.4238 241.742C84.8848 241.742 84.4648 241.896 84.1641 242.205C83.8672 242.51 83.7188 242.936 83.7188 243.482H82.6348C82.6348 242.697 82.8867 242.062 83.3906 241.578C83.8984 241.094 84.5762 240.852 85.4238 240.852C86.2168 240.852 86.8438 241.061 87.3047 241.479C87.7656 241.893 87.9961 242.445 87.9961 243.137C87.9961 243.977 87.4609 244.977 86.3906 246.137L84.1055 248.615H88.3887V249.5Z" fill="#888888"/>
<path d="M80.6 31.8666H70.15V231H80.6V31.8666Z" fill="#1A889E"/>
<path d="M132.85 59.3333H122.4V231H132.85V59.3333Z" fill="#1A889E"/>
<path d="M185.1 116.556H174.65V231H185.1V116.556Z" fill="#1A889E"/>
<path d="M237.35 59.3333H226.9V231H237.35V59.3333Z" fill="#1A889E"/>
<path d="M289.6 116.556H279.15V231H289.6V116.556Z" fill="#1A889E"/>
<path d="M341.85 144.022H331.4V231H341.85V144.022Z" fill="#1A889E"/>
<path d="M394.1 66.2H383.65V231H394.1V66.2Z" fill="#1A889E"/>
</svg>
