<svg width="571" height="509" viewBox="0 0 571 509" fill="none" xmlns="http://www.w3.org/2000/svg">
<path opacity="0.1" d="M266.174 3.91992L534.916 408.511L266.242 253.352L266.174 3.91992Z" fill="url(#paint0_linear)"/>
<path opacity="0.7" d="M522.752 436.759C525.523 438.381 526.739 435.069 524.577 431.825L240.361 3.98696C238.469 1.08109 235.63 1.01351 235.63 3.8518L235.698 267.542C235.698 269.435 236.982 271.665 238.604 272.611L522.752 436.759ZM277.729 125.763C277.729 122.925 280.567 122.992 282.459 125.898L407.066 313.225C409.228 316.469 408.012 319.781 405.241 318.159L280.702 246.188C279.081 245.242 277.797 243.012 277.797 241.119L277.729 125.763Z" fill="url(#paint1_linear)"/>
<path opacity="0.4" d="M369.9 12.7725L571 128.94V233.754L387.672 127.791L369.967 133.603L369.9 12.7725Z" fill="url(#paint2_linear)"/>
<path d="M410.714 71.4981C410.714 80.1481 405.579 84.2028 399.294 80.5536C393.01 76.9044 387.874 66.9704 387.874 58.3203C387.874 49.6703 393.01 45.6156 399.294 49.2648C405.646 52.9141 410.714 62.8481 410.714 71.4981Z" fill="#F2C94C"/>
<path opacity="0.15" d="M421.594 68.1191L465.652 93.5962V102.787L421.594 77.3098V68.1191Z" fill="#1D2CC6"/>
<path opacity="0.15" d="M421.594 86.5674L553.16 162.593V171.784L421.594 95.758V86.5674Z" fill="#1D2CC6"/>
<path opacity="0.15" d="M421.594 105.017L524.509 164.486V173.676L421.594 114.207V105.017Z" fill="#1D2CC6"/>
<path opacity="0.5" d="M201.032 271.057L0 154.89V259.704L183.328 365.599L201.1 391.887L201.032 271.057Z" fill="url(#paint3_linear)"/>
<path d="M160.218 282.545C160.218 291.195 165.354 301.129 171.638 304.778C177.923 308.428 183.058 304.373 183.058 295.723C183.058 287.073 177.923 277.139 171.638 273.49C165.354 269.908 160.218 273.963 160.218 282.545Z" fill="#F2994A"/>
<path opacity="0.15" d="M149.338 266.732L105.28 241.255V250.446L149.338 275.923V266.732Z" fill="#1D2CC6"/>
<path opacity="0.15" d="M149.406 285.113L17.7718 209.087V218.278L149.338 294.303L149.406 285.113Z" fill="#1D2CC6"/>
<path opacity="0.15" d="M149.406 303.562L46.4907 244.093V253.283L149.406 312.752V303.562Z" fill="#1D2CC6"/>
<path opacity="0.3" d="M129.539 0L213.534 48.5212L213.601 230.51L129.539 181.988V0Z" fill="url(#paint4_linear)"/>
<path d="M103.253 49.9404L169.34 88.1222V109.95L103.253 71.7682V49.9404Z" fill="#F2994A"/>
<path opacity="0.15" d="M129.539 154.957L213.534 203.478V230.442L129.539 181.921V154.957Z" fill="#1D2CC6"/>
<path opacity="0.15" d="M139.878 33.0459L174.341 52.9139V62.1046L139.878 42.2366V33.0459Z" fill="#1D2CC6"/>
<path opacity="0.15" d="M139.946 51.4951L200.898 86.7034V95.8941L139.946 60.6858V51.4951Z" fill="#1D2CC6"/>
<path opacity="0.15" d="M175.693 152.187V161.377L139.946 140.698V131.508L175.693 152.187Z" fill="#1D2CC6"/>
<path opacity="0.2" d="M306.988 327.011L222.994 278.49L223.062 460.479L307.056 509L306.988 327.011Z" fill="url(#paint5_linear)"/>
<path d="M333.275 407.295L267.188 369.113V390.941L333.275 429.123V407.295Z" fill="#F2C94C"/>
<path opacity="0.15" d="M307.056 481.969L223.062 433.447V460.411L307.056 508.932V481.969Z" fill="#1D2CC6"/>
<path opacity="0.15" d="M235.698 312.888L270.16 332.756V341.946L235.698 322.078V312.888Z" fill="#1D2CC6"/>
<path opacity="0.15" d="M235.698 331.337L296.649 366.545V375.736L235.698 340.528V331.337Z" fill="#1D2CC6"/>
<path opacity="0.15" d="M260.903 425.946V435.137L296.65 455.816V446.625L260.903 425.946Z" fill="#1D2CC6"/>
<path opacity="0.2" d="M478.424 211.25C482.478 213.548 485.722 219.224 485.722 223.887V244.499L499.372 252.338C503.426 254.635 506.669 260.312 506.669 264.975C506.669 269.638 503.426 271.53 499.372 269.232L485.722 261.393V282.005C485.722 286.668 482.478 288.56 478.424 286.262C474.369 283.964 471.126 278.288 471.126 273.625V253.014L457.476 245.107C453.421 242.809 450.178 237.133 450.178 232.402C450.178 227.739 453.421 225.847 457.476 228.145L471.126 235.984V215.372C471.126 210.777 474.369 208.885 478.424 211.25Z" fill="url(#paint6_linear)"/>
<defs>
<linearGradient id="paint0_linear" x1="461.934" y1="99.9819" x2="324.334" y2="338.153" gradientUnits="userSpaceOnUse">
<stop stop-color="#6031D8"/>
<stop offset="1" stop-color="#222DC7"/>
</linearGradient>
<linearGradient id="paint1_linear" x1="447.227" y1="104.251" x2="307.881" y2="345.297" gradientUnits="userSpaceOnUse">
<stop stop-color="#5B31D7"/>
<stop offset="0.8963" stop-color="#6532DA"/>
</linearGradient>
<linearGradient id="paint2_linear" x1="456.318" y1="16.1992" x2="482.185" y2="227.059" gradientUnits="userSpaceOnUse">
<stop stop-color="#5D31D7"/>
<stop offset="1" stop-color="#1E2CC6"/>
</linearGradient>
<linearGradient id="paint3_linear" x1="157.205" y1="229.055" x2="53.3656" y2="310.313" gradientUnits="userSpaceOnUse">
<stop stop-color="#1D2CC6"/>
<stop offset="1" stop-color="#5C31D7"/>
</linearGradient>
<linearGradient id="paint4_linear" x1="210.941" y1="47.0409" x2="138.33" y2="172.724" gradientUnits="userSpaceOnUse">
<stop stop-color="#232DC7"/>
<stop offset="1" stop-color="#6C32DB"/>
</linearGradient>
<linearGradient id="paint5_linear" x1="304.44" y1="325.535" x2="231.828" y2="451.218" gradientUnits="userSpaceOnUse">
<stop stop-color="#D4D6F2"/>
<stop offset="1" stop-color="#D4D6F3"/>
</linearGradient>
<linearGradient id="paint6_linear" x1="492.529" y1="237.584" x2="457.147" y2="265.505" gradientUnits="userSpaceOnUse">
<stop stop-color="#1D2CC6"/>
<stop offset="1" stop-color="#6232D9"/>
</linearGradient>
</defs>
</svg>
