<svg width="199" height="203" viewBox="0 0 199 203" fill="none" xmlns="http://www.w3.org/2000/svg">
<path d="M2.7205 171.237C10.3365 189.822 22.7545 193.691 31.4853 189.822C48.3704 182.341 92.232 173.982 137.279 193.63C196.942 219.654 209.637 180.392 190.595 140.677C171.554 100.962 165.1 60.8 187.051 38.6729C209.002 16.5457 180.277 -18.0691 129.264 17.9625C96.2976 41.2475 72.1041 36.0626 59.1122 29.4801C46.8678 23.2762 33.2506 16.7905 20.4925 21.8545C5.01202 27.9996 -1.08778 41.3222 22.4651 71.0853C55.8415 113.262 -14.3518 129.58 2.7205 171.237Z" fill="#ECEFF1"/>
<path d="M33.7305 80.704H152.259V171.859C152.259 172.045 152.185 172.223 152.054 172.354C151.922 172.486 151.744 172.559 151.559 172.559H34.4305C34.2448 172.559 34.0668 172.486 33.9355 172.354C33.8042 172.223 33.7305 172.045 33.7305 171.859V80.704Z" fill="#546E7A"/>
<path d="M122.524 44.9825H67.4107L33.7305 80.7039H152.259L122.524 44.9825Z" fill="#263238"/>
<path d="M44.957 30.6938L67.4105 44.9825L33.7303 80.7039L8.21484 61.3122L44.957 30.6938Z" fill="#546E7A"/>
<path d="M144.977 30.6938L122.523 44.9825L152.258 80.7039L181.719 61.3122L144.977 30.6938Z" fill="#546E7A"/>
<path d="M81.89 31.4244C82.5237 31.124 83.0166 30.5903 83.266 29.9349C83.5153 29.2795 83.5016 28.5531 83.2279 27.9075L73.127 4.08958C72.984 3.75221 72.7741 3.44725 72.5102 3.19305C72.2463 2.93884 71.9336 2.74064 71.5911 2.61036C71.2486 2.48008 70.8833 2.42041 70.5171 2.43494C70.151 2.44946 69.7915 2.53789 69.4604 2.69489L67.5144 3.61764C67.1833 3.77464 66.8874 3.99697 66.6444 4.27127C66.4014 4.54557 66.2164 4.86617 66.1005 5.2138C65.9846 5.56143 65.9402 5.92891 65.9699 6.29414C65.9997 6.65937 66.103 7.01482 66.2736 7.33912L78.3203 30.2342C78.6469 30.8547 79.2006 31.3251 79.8659 31.5469C80.5312 31.7688 81.2564 31.7249 81.89 31.4244Z" fill="#263238"/>
<path d="M94.5536 29.1154C95.0121 29.0827 95.4403 28.8741 95.7487 28.5332C96.0571 28.1922 96.2218 27.7453 96.2085 27.2857L95.7095 10.3295C95.7024 10.0893 95.6469 9.85304 95.5462 9.63488C95.4454 9.41673 95.3017 9.22118 95.1234 9.06002C94.9452 8.89885 94.7362 8.77539 94.5091 8.69704C94.2819 8.6187 94.0413 8.58709 93.8016 8.60412L92.3928 8.70451C92.1532 8.72156 91.9195 8.78688 91.7058 8.89654C91.4921 9.00619 91.3028 9.15792 91.1492 9.34261C90.9956 9.52729 90.8809 9.74112 90.8121 9.97124C90.7432 10.2014 90.7216 10.443 90.7485 10.6817L92.6563 27.5377C92.7079 27.9947 92.9341 28.414 93.2877 28.7081C93.6413 29.0021 94.0948 29.148 94.5536 29.1154Z" fill="#263238"/>
<path d="M104.33 35.3835C105.591 36.1128 107.362 35.4436 108.344 33.8662L125.783 5.85881C126.825 4.18567 126.578 2.14643 125.24 1.37293L123.376 0.294933C122.038 -0.478706 120.147 0.324611 119.217 2.06215L103.642 31.1474C102.765 32.7855 103.069 34.6541 104.33 35.3835Z" fill="#263238"/>
<path d="M66.5235 126.396C68.4695 126.396 70.047 124.293 70.047 121.698C70.047 119.103 68.4695 117 66.5235 117C64.5775 117 63 119.103 63 121.698C63 124.293 64.5775 126.396 66.5235 126.396Z" fill="white"/>
<path d="M115.854 126.396C117.8 126.396 119.377 124.293 119.377 121.698C119.377 119.103 117.8 117 115.854 117C113.908 117 112.33 119.103 112.33 121.698C112.33 124.293 113.908 126.396 115.854 126.396Z" fill="white"/>
<path d="M104.5 141.973C104.381 141.973 104.264 141.943 104.16 141.886C104.056 141.828 103.969 141.745 103.906 141.644C103.869 141.586 100.037 135.666 91.1302 134.924C87.4231 134.615 83.9051 135.648 80.6779 137.993C79.2386 139.027 77.9601 140.268 76.8839 141.675C76.7769 141.826 76.6145 141.928 76.4323 141.96C76.2502 141.991 76.0629 141.949 75.9115 141.843C75.7602 141.737 75.6569 141.575 75.6243 141.393C75.5916 141.211 75.6323 141.024 75.7375 140.872C75.7961 140.788 77.2044 138.797 79.813 136.891C83.2807 134.357 87.2346 133.195 91.2463 133.529C100.881 134.332 104.925 140.634 105.092 140.902C105.159 141.008 105.195 141.13 105.199 141.255C105.202 141.38 105.172 141.503 105.111 141.612C105.051 141.722 104.962 141.813 104.854 141.876C104.747 141.94 104.625 141.973 104.5 141.973Z" fill="white"/>
</svg>
